HIERARCHY
ROOT Hips
{
  OFFSET 0.0000 0.0000 0.0000
  CHANNELS 6 Xposition Yposition Zposition Zrotation Xrotation Yrotation
  JOINT Chest
  {
    OFFSET -0.1728 10.2870 0.1254
    CHANNELS 3 Zrotation Xrotation Yrotation
    JOINT Chest2
    {
      OFFSET 0.3229 15.8173 -2.6440
      CHANNELS 3 Zrotation Xrotation Yrotation
      JOINT LeftCollar
      {
        OFFSET -0.0683 16.8828 0.2989
        CHANNELS 3 Zrotation Xrotation Yrotation
        JOINT LeftShoulder
        {
          OFFSET 16.0110 -3.0750 2.0528
          CHANNELS 3 Zrotation Xrotation Yrotation
          JOINT LeftElbow
          {
            OFFSET 2.6153 -25.4187 1.7231
            CHANNELS 3 Zrotation Xrotation Yrotation
            JOINT LeftWrist
            {
              OFFSET 2.3595 -22.4741 1.0488
              CHANNELS 3 Zrotation Xrotation Yrotation
              End Site
              {
                  OFFSET 1.4871 -13.9919 1.1523
              }
            }
          }
        }
      }
      JOINT RightCollar
      {
        OFFSET -0.0683 16.8828 0.2989
        CHANNELS 3 Zrotation Xrotation Yrotation
        JOINT RightShoulder
        {
          OFFSET -16.3743 -2.4390 2.0841
          CHANNELS 3 Zrotation Xrotation Yrotation
          JOINT RightElbow
          {
            OFFSET -2.6865 -25.0857 1.2959
            CHANNELS 3 Zrotation Xrotation Yrotation
            JOINT RightWrist
            {
              OFFSET -2.3810 -22.8348 1.0329
              CHANNELS 3 Zrotation Xrotation Yrotation
              End Site
              {
                  OFFSET -1.4652 -14.7234 1.0705
              }
            }
          }
        }
      }
      JOINT Neck
      {
        OFFSET -0.0683 16.8828 0.2989
        CHANNELS 3 Zrotation Xrotation Yrotation
        JOINT Head
        {
          OFFSET 0.1300 11.4121 4.7143
          CHANNELS 3 Zrotation Xrotation Yrotation
          End Site
          {
              OFFSET 0.0452 18.0438 0.3379
          }
        }
      }
    }
  }
  JOINT LeftHip
  {
    OFFSET 9.3186 -0.0408 3.5432
    CHANNELS 3 Zrotation Xrotation Yrotation
    JOINT LeftKnee
    {
      OFFSET -0.5435 -48.8357 0.3144
      CHANNELS 3 Zrotation Xrotation Yrotation
      JOINT LeftAnkle
      {
        OFFSET 0.2027 -38.4920 -4.2946
        CHANNELS 3 Zrotation Xrotation Yrotation
        End Site
        {
            OFFSET 1.1879 -7.4485 17.8063
        }
      }
    }
  }
  JOINT RightHip
  {
    OFFSET -10.0712 -0.0749 3.1483
    CHANNELS 3 Zrotation Xrotation Yrotation
    JOINT RightKnee
    {
      OFFSET 0.3157 -48.5179 0.1055
      CHANNELS 3 Zrotation Xrotation Yrotation
      JOINT RightAnkle
      {
        OFFSET -1.1248 -38.4399 -3.4305
        CHANNELS 3 Zrotation Xrotation Yrotation
        End Site
        {
            OFFSET -1.3336 -7.3741 17.3830
        }
      }
    }
  }
}
MOTION
Frames:	21
Frame Time:	0.016667
-4.3911 86.8019 334.4938 -52.37 39.34 70.91 -2.30 -5.93 3.97 -2.25 -5.95 4.02 -0.18 -0.70 0.26 125.15 -70.60 11.26 9.44 -17.81 -2.08 -4.45 1.29 -18.93 -0.01 -0.80 0.01 -91.62 -81.32 32.57 -9.74 -65.75 5.84 8.66 -5.54 5.99 11.42 -20.73 -5.10 12.23 -13.45 -4.94 -125.54 -84.40 -89.76 0.89 52.63 2.89 14.24 -19.08 15.83 -123.60 -56.15 -139.34 4.60 74.46 -5.78 0.06 14.95 20.51 
-3.5865 86.9109 333.7240 -51.21 40.65 68.94 -2.02 -5.76 4.03 -1.97 -5.78 4.07 -0.18 -0.70 0.26 132.41 -71.28 19.09 9.41 -18.82 -2.12 -3.61 0.43 -17.67 -0.01 -0.80 0.01 -99.63 -81.36 24.18 -10.10 -63.96 5.54 8.28 -6.60 3.21 11.26 -20.74 -4.88 12.05 -13.46 -4.72 -122.44 -84.91 -85.38 0.92 52.13 2.95 14.62 -19.01 16.50 -121.43 -56.50 -136.77 4.77 74.90 -5.96 0.05 14.13 19.57 
-2.7772 87.0011 333.0052 -50.00 41.90 66.93 -1.76 -5.57 4.11 -1.71 -5.60 4.16 -0.18 -0.70 0.26 139.48 -71.60 26.92 9.38 -19.86 -2.16 -2.77 -0.44 -16.18 -0.01 -0.80 0.01 -107.03 -81.16 16.35 -10.42 -62.07 5.26 7.82 -7.60 0.32 11.07 -20.73 -4.69 11.83 -13.45 -4.54 -118.83 -85.46 -80.48 0.94 51.72 2.98 14.77 -19.14 17.07 -119.11 -56.82 -134.09 4.97 75.38 -6.17 0.04 13.30 18.53 
-1.9667 87.0717 332.3378 -48.71 43.06 64.88 -1.53 -5.36 4.23 -1.48 -5.39 4.27 -0.18 -0.70 0.26 146.10 -71.62 34.47 9.35 -20.90 -2.21 -1.90 -1.35 -14.29 -0.01 -0.80 0.01 -113.50 -80.77 9.42 -10.72 -60.09 5.02 7.29 -8.53 -2.66 10.83 -20.70 -4.55 11.58 -13.42 -4.40 -113.90 -86.08 -74.24 0.94 51.43 2.97 14.52 -19.56 17.53 -116.55 -57.10 -131.33 5.18 75.85 -6.39 0.04 12.44 17.39 
-1.1613 87.1208 331.7235 -47.34 44.13 62.78 -1.33 -5.12 4.35 -1.28 -5.14 4.40 -0.18 -0.70 0.26 152.02 -71.41 41.52 9.32 -21.92 -2.25 -1.04 -2.27 -12.15 -0.01 -0.80 0.01 -118.93 -80.23 3.49 -11.00 -58.04 4.80 6.67 -9.42 -5.76 10.57 -20.66 -4.43 11.30 -13.37 -4.29 -106.41 -86.71 -65.44 0.93 51.25 2.92 13.87 -20.30 17.88 -113.71 -57.33 -128.46 5.40 76.31 -6.61 0.04 11.51 16.17 
-0.3659 87.1463 331.1643 -45.86 45.08 60.64 -1.15 -4.83 4.48 -1.10 -4.85 4.52 -0.18 -0.70 0.26 157.15 -71.04 47.93 9.30 -22.90 -2.29 -0.23 -3.19 -9.79 -0.01 -0.80 0.01 -123.38 -79.56 -1.43 -11.25 -55.93 4.60 5.98 -10.27 -8.99 10.26 -20.61 -4.33 10.98 -13.33 -4.19 -94.16 -87.28 -51.90 0.91 51.18 2.83 12.64 -21.48 18.08 -110.53 -57.48 -125.47 5.62 76.75 -6.84 0.05 10.50 14.88 
0.4121 87.1473 330.6601 -44.29 45.91 58.45 -0.99 -4.50 4.59 -0.94 -4.52 4.64 -0.18 -0.70 0.26 161.48 -70.58 53.72 9.27 -23.84 -2.33 0.51 -4.12 -7.33 -0.01 -0.80 0.01 -126.96 -78.82 -5.49 -11.49 -53.77 4.42 5.20 -11.09 -12.30 9.94 -20.57 -4.25 10.65 -13.29 -4.11 -74.77 -87.66 -31.26 0.88 51.21 2.71 11.05 -22.93 18.15 -106.99 -57.54 -122.36 5.84 77.15 -7.06 0.07 9.37 13.51 
1.1660 87.1222 330.2127 -42.62 46.60 56.23 -0.87 -4.11 4.70 -0.82 -4.13 4.74 -0.18 -0.70 0.26 165.11 -70.06 58.93 9.24 -24.72 -2.37 1.13 -5.02 -4.90 -0.01 -0.80 0.01 -129.88 -78.00 -8.88 -11.71 -51.54 4.27 4.33 -11.89 -15.71 9.60 -20.56 -4.17 10.30 -13.27 -4.04 -49.10 -87.67 -4.38 0.83 51.37 2.55 9.14 -24.59 18.07 -103.10 -57.50 -119.13 6.05 77.51 -7.28 0.09 8.10 12.06 
1.8889 87.0717 329.8190 -40.87 47.15 53.99 -0.78 -3.67 4.78 -0.73 -3.69 4.82 -0.18 -0.70 0.26 168.05 -69.51 63.55 9.21 -25.53 -2.41 1.63 -5.89 -2.54 -0.01 -0.80 0.01 -132.17 -77.13 -11.66 -11.91 -49.27 4.13 3.38 -12.67 -19.07 9.27 -20.56 -4.10 9.96 -13.27 -3.96 -27.04 -87.19 18.82 0.79 51.60 2.40 7.18 -26.28 17.90 -98.87 -57.33 -115.79 6.25 77.83 -7.48 0.11 6.71 10.54 
2.5734 86.9952 329.4786 -39.05 47.53 51.74 -0.71 -3.19 4.81 -0.66 -3.21 4.86 -0.18 -0.70 0.26 170.32 -68.98 67.58 9.19 -26.26 -2.44 1.98 -6.70 -0.38 -0.01 -0.80 0.01 -133.93 -76.22 -13.91 -12.10 -47.01 4.01 2.34 -13.44 -22.27 8.93 -20.57 -4.01 9.62 -13.28 -3.87 -13.52 -86.39 33.40 0.75 51.85 2.27 5.44 -27.80 17.67 -94.34 -56.99 -112.34 6.42 78.10 -7.66 0.13 5.19 8.97 
3.2150 86.8950 329.1846 -37.20 47.76 49.52 -0.66 -2.67 4.81 -0.61 -2.69 4.86 -0.18 -0.70 0.26 172.02 -68.47 71.05 9.17 -26.92 -2.47 2.23 -7.45 1.67 -0.01 -0.80 0.01 -135.21 -75.27 -15.73 -12.27 -44.75 3.90 1.23 -14.18 -25.24 8.63 -20.59 -3.92 9.30 -13.30 -3.78 -5.62 -85.43 42.28 0.72 52.14 2.16 3.99 -29.13 17.45 -89.61 -56.48 -108.87 6.56 78.31 -7.80 0.15 3.59 7.37 
3.8072 86.7721 328.9331 -35.36 47.86 47.36 -0.65 -2.11 4.78 -0.61 -2.13 4.82 -0.18 -0.70 0.26 173.22 -67.98 74.00 9.15 -27.53 -2.50 2.41 -8.10 3.61 -0.01 -0.80 0.01 -136.05 -74.30 -17.20 -12.43 -42.47 3.81 0.10 -14.91 -27.76 8.36 -20.64 -3.81 9.02 -13.35 -3.68 -0.77 -84.39 48.04 0.70 52.43 2.09 3.06 -30.12 17.30 -84.77 -55.78 -105.42 6.67 78.47 -7.91 0.16 1.95 5.73 
4.3486 86.6298 328.7148 -33.55 47.82 45.27 -0.67 -1.54 4.71 -0.63 -1.56 4.75 -0.18 -0.70 0.26 173.92 -67.52 76.39 9.13 -28.06 -2.53 2.53 -8.69 5.53 -0.01 -0.80 0.01 -136.45 -73.32 -18.35 -12.58 -40.22 3.73 -1.03 -15.61 -30.16 8.15 -20.69 -3.70 8.79 -13.39 -3.57 2.22 -83.33 51.84 0.68 52.73 2.04 2.52 -30.87 17.22 -79.92 -54.89 -102.08 6.74 78.57 -7.98 0.15 0.32 4.09 
4.8352 86.4705 328.5225 -31.80 47.66 43.30 -0.72 -0.96 4.58 -0.67 -0.99 4.62 -0.18 -0.70 0.26 174.13 -67.12 78.20 9.11 -28.49 -2.55 2.67 -9.20 7.49 -0.01 -0.80 0.01 -136.41 -72.33 -19.17 -12.72 -38.02 3.66 -2.11 -16.25 -32.49 7.98 -20.72 -3.58 8.61 -13.42 -3.45 3.95 -82.30 54.30 0.67 53.01 2.04 2.34 -31.40 17.25 -75.15 -53.80 -98.89 6.76 78.60 -8.00 0.14 -1.23 2.48 
5.2684 86.2980 328.3461 -30.13 47.42 41.44 -0.78 -0.39 4.42 -0.74 -0.41 4.46 -0.18 -0.70 0.26 173.93 -66.75 79.47 9.10 -28.81 -2.56 2.81 -9.67 9.55 -0.01 -0.80 0.01 -136.00 -71.35 -19.74 -12.84 -35.86 3.60 -3.12 -16.82 -35.40 7.87 -20.73 -3.45 8.48 -13.43 -3.33 5.11 -81.31 56.12 0.67 53.27 2.07 2.38 -31.80 17.33 -70.56 -52.55 -95.93 6.75 78.58 -7.99 0.12 -2.66 0.90 
5.6474 86.1160 328.1763 -28.57 47.12 39.69 -0.89 0.16 4.25 -0.84 0.14 4.29 -0.18 -0.70 0.26 173.36 -66.41 80.25 9.09 -29.03 -2.57 3.00 -10.13 11.75 -0.01 -0.80 0.01 -135.23 -70.39 -20.09 -12.96 -33.74 3.55 -4.02 -17.13 -40.22 7.81 -20.73 -3.33 8.41 -13.43 -3.22 6.06 -80.35 57.68 0.66 53.55 2.09 2.51 -32.15 17.45 -66.24 -51.16 -93.24 6.70 78.50 -7.94 0.10 -3.92 -0.62 
5.9754 85.9280 328.0048 -27.10 46.79 38.07 -1.01 0.69 4.05 -0.97 0.67 4.09 -0.18 -0.70 0.26 172.45 -66.10 80.55 9.09 -29.10 -2.58 3.21 -10.62 14.11 -0.01 -0.80 0.01 -134.15 -69.44 -20.25 -13.07 -31.67 3.51 -4.94 -17.37 -45.05 7.80 -20.70 -3.22 8.39 -13.40 -3.11 6.82 -79.45 59.00 0.65 53.81 2.11 2.69 -32.46 17.60 -62.20 -49.68 -90.81 6.61 78.39 -7.85 0.08 -4.99 -2.08 
6.2539 85.7379 327.8222 -25.73 46.42 36.56 -1.16 1.19 3.83 -1.11 1.17 3.86 -0.18 -0.70 0.26 171.19 -65.82 80.35 9.09 -28.99 -2.57 3.48 -11.17 16.65 -0.01 -0.80 0.01 -132.81 -68.50 -20.23 -13.18 -29.66 3.47 -5.73 -17.16 -53.24 7.82 -20.64 -3.12 8.39 -13.34 -3.01 7.43 -78.62 60.12 0.63 54.08 2.14 2.82 -32.78 17.75 -58.46 -48.15 -88.63 6.50 78.22 -7.74 0.06 -5.82 -3.45 
6.4866 85.5487 327.6231 -24.47 46.05 35.15 -1.32 1.65 3.60 -1.28 1.63 3.63 -0.18 -0.70 0.26 169.64 -65.54 79.71 9.10 -28.71 -2.56 3.79 -11.81 19.34 -0.01 -0.80 0.01 -131.25 -67.56 -20.07 -13.28 -27.70 3.44 -6.47 -16.85 -61.42 7.86 -20.56 -3.04 8.43 -13.26 -2.93 8.02 -77.86 61.19 0.62 54.34 2.17 2.92 -33.10 17.91 -55.01 -46.61 -86.67 6.37 78.02 -7.60 0.04 -6.44 -4.72 
6.6766 85.3640 327.4000 -23.29 45.72 33.82 -1.52 2.08 3.38 -1.48 2.05 3.42 -0.18 -0.70 0.26 167.85 -65.25 78.69 9.12 -28.26 -2.54 4.13 -12.54 22.19 -0.01 -0.80 0.01 -129.53 -66.63 -19.79 -13.37 -25.77 3.41 -7.08 -16.34 -70.72 7.93 -20.46 -2.96 8.48 -13.16 -2.86 8.68 -77.18 62.33 0.60 54.59 2.20 2.97 -33.41 18.05 -51.88 -45.13 -84.90 6.22 77.79 -7.45 0.03 -6.85 -5.90 
6.8273 85.1855 327.1502 -22.20 45.41 32.58 -1.74 2.46 3.17 -1.70 2.44 3.20 -0.18 -0.70 0.26 165.81 -64.93 77.29 9.14 -27.66 -2.51 4.52 -13.34 25.18 -0.01 -0.80 0.01 -127.68 -65.70 -19.41 -13.46 -23.90 3.39 -7.59 -15.74 -79.99 8.01 -20.36 -2.90 8.55 -13.06 -2.80 9.36 -76.58 63.47 0.58 54.84 2.22 2.98 -33.70 18.18 -49.01 -43.72 -83.29 6.06 77.53 -7.29 0.02 -7.07 -6.98 
